<?xml version="1.0" encoding="UTF-8" standalone="no"?>
<!-- Created with Inkscape (http://www.inkscape.org/) -->

<svg
   xmlns:dc="http://purl.org/dc/elements/1.1/"
   xmlns:cc="http://creativecommons.org/ns#"
   xmlns:rdf="http://www.w3.org/1999/02/22-rdf-syntax-ns#"
   xmlns:svg="http://www.w3.org/2000/svg"
   xmlns="http://www.w3.org/2000/svg"
   xmlns:sodipodi="http://sodipodi.sourceforge.net/DTD/sodipodi-0.dtd"
   xmlns:inkscape="http://www.inkscape.org/namespaces/inkscape"
   version="1.1"
   id="svg19304"
   width="64"
   height="64"
   viewBox="0 0 64 64"
   sodipodi:docname="Chess_rd.svg"
   inkscape:version="0.92.3 (2405546, 2018-03-11)">
  <metadata
     id="metadata19310">
    <rdf:RDF>
      <cc:Work
         rdf:about="">
        <dc:format>image/svg+xml</dc:format>
        <dc:type
           rdf:resource="http://purl.org/dc/dcmitype/StillImage" />
        <dc:title></dc:title>
      </cc:Work>
    </rdf:RDF>
  </metadata>
  <defs
     id="defs19308" />
  <sodipodi:namedview
     pagecolor="#ffffff"
     bordercolor="#666666"
     borderopacity="1"
     objecttolerance="10"
     gridtolerance="10"
     guidetolerance="10"
     inkscape:pageopacity="0"
     inkscape:pageshadow="2"
     inkscape:window-width="1304"
     inkscape:window-height="745"
     id="namedview19306"
     showgrid="false"
     inkscape:zoom="3.6875"
     inkscape:cx="32"
     inkscape:cy="32"
     inkscape:window-x="54"
     inkscape:window-y="-8"
     inkscape:window-maximized="1"
     inkscape:current-layer="svg19304" />
  <path
     style="fill:#000000;stroke-width:1.06666672"
     d="m 11.733334,52.80904 c 0,-2.488889 0.474074,-3.2 2.133333,-3.2 1.491183,0 2.143545,-0.72242 2.167257,-2.4 0.01866,-1.32 0.738658,-3.331742 1.6,-4.470539 1.060236,-1.401756 1.566077,-4.707548 1.566077,-10.234679 0,-6.950681 -0.334295,-8.466163 -2.249128,-10.196128 -2.223854,-2.009155 -2.05305,-2.038432 15.2,-2.605532 L 49.600001,19.128616 32.266666,18.902162 14.933334,18.675706 v -3.733333 c 0,-3.555555 0.177778,-3.733333 3.733333,-3.733333 2.053334,0 3.733334,0.48 3.733334,1.066666 0,0.586667 1.2,1.066667 2.666666,1.066667 1.466667,0 2.666667,-0.48 2.666667,-1.066667 0,-1.391074 8.206935,-1.391074 9.066667,0 0.879466,1.423007 4.799999,1.370415 4.799999,-0.06438 0,-0.654742 1.684495,-0.99164 4,-0.8 3.738259,0.309393 4.020835,0.578914 4.318408,4.11891 0.230522,2.742308 -0.284728,4.333686 -1.866666,5.765321 -1.903483,1.722623 -2.185076,3.253935 -2.185076,11.882522 0,5.452773 0.479463,10.201386 1.066667,10.564298 C 47.52,44.104957 48,45.573285 48,47.005328 c 0,1.892604 0.582643,2.603716 2.133333,2.603716 1.659261,0 2.133333,0.711111 2.133333,3.2 v 3.2 H 32 11.733334 Z m 28,-2.925341 c -4.253333,-0.202465 -11.213333,-0.202465 -15.466667,0 -4.253333,0.202466 -0.773333,0.36812 7.733334,0.36812 8.506666,0 11.986666,-0.165654 7.733333,-0.36812 z m 0.04436,-6.396599 c -3.642268,-0.207655 -9.882268,-0.209181 -13.866667,-0.0034 -3.9844,0.20581 -1.004363,0.375711 6.622304,0.377577 7.626667,0.0018 10.886629,-0.166508 7.244361,-0.374164 z m -1.11103,-2.134484 c -3.666666,-0.208289 -9.666666,-0.208289 -13.333333,0 -3.666667,0.208289 -0.666667,0.378707 6.666667,0.378707 7.333333,0 10.333333,-0.170418 6.666666,-0.378707 z m -0.53333,-19.198497 c -3.373333,-0.211681 -8.893333,-0.211681 -12.266667,0 -3.373333,0.21168 -0.613333,0.384874 6.133334,0.384874 6.746666,0 9.506666,-0.173194 6.133333,-0.384874 z"
     id="path19314"
     inkscape:connector-curvature="0" />
</svg>
