<?xml version="1.0" encoding="UTF-8" standalone="no"?>
<!-- Created with Inkscape (http://www.inkscape.org/) -->

<svg
   xmlns:dc="http://purl.org/dc/elements/1.1/"
   xmlns:cc="http://creativecommons.org/ns#"
   xmlns:rdf="http://www.w3.org/1999/02/22-rdf-syntax-ns#"
   xmlns:svg="http://www.w3.org/2000/svg"
   xmlns="http://www.w3.org/2000/svg"
   xmlns:sodipodi="http://sodipodi.sourceforge.net/DTD/sodipodi-0.dtd"
   xmlns:inkscape="http://www.inkscape.org/namespaces/inkscape"
   version="1.1"
   id="svg19316"
   width="64"
   height="64"
   viewBox="0 0 64 64"
   sodipodi:docname="Chess_rl.svg"
   inkscape:version="0.92.3 (2405546, 2018-03-11)">
  <metadata
     id="metadata19322">
    <rdf:RDF>
      <cc:Work
         rdf:about="">
        <dc:format>image/svg+xml</dc:format>
        <dc:type
           rdf:resource="http://purl.org/dc/dcmitype/StillImage" />
        <dc:title></dc:title>
      </cc:Work>
    </rdf:RDF>
  </metadata>
  <defs
     id="defs19320" />
  <sodipodi:namedview
     pagecolor="#ffffff"
     bordercolor="#666666"
     borderopacity="1"
     objecttolerance="10"
     gridtolerance="10"
     guidetolerance="10"
     inkscape:pageopacity="0"
     inkscape:pageshadow="2"
     inkscape:window-width="1304"
     inkscape:window-height="745"
     id="namedview19318"
     showgrid="false"
     inkscape:zoom="3.6875"
     inkscape:cx="32"
     inkscape:cy="32"
     inkscape:window-x="54"
     inkscape:window-y="-8"
     inkscape:window-maximized="1"
     inkscape:current-layer="svg19316" />
  <path
     style="fill:#000000;stroke-width:1.06666672"
     d="m 13.26321,55.050027 c -1.527784,-1.527786 -0.664095,-4.863613 1.398938,-5.403108 1.173333,-0.306833 2.148599,-1.341897 2.167256,-2.300139 0.01866,-0.958243 0.738659,-2.674002 1.6,-3.812799 1.096839,-1.450149 1.566077,-4.836336 1.566077,-11.301346 0,-7.949012 -0.303421,-9.505401 -2.185075,-11.208274 -1.581938,-1.431635 -2.097187,-3.023012 -1.866667,-5.765321 0.272921,-3.246721 0.738331,-3.836154 3.257807,-4.125956 1.916869,-0.220487 3.162519,0.243341 3.580788,1.333333 0.817478,2.130314 5.322013,2.182789 6.132215,0.07144 0.813386,-2.119647 6.948479,-2.119647 7.761865,0 0.810201,2.111353 5.314737,2.058878 6.132215,-0.07144 0.418269,-1.089992 1.663919,-1.55382 3.580787,-1.333333 2.570755,0.295699 2.981787,0.854345 3.277387,4.454386 0.26214,3.192536 -0.156764,4.462823 -1.866667,5.660484 -1.946086,1.363092 -2.200676,2.63175 -2.170732,10.81705 0.02363,6.458006 0.509319,9.901376 1.6,11.343388 0.861343,1.138796 1.566077,2.882813 1.566077,3.875592 0,0.992781 0.997973,2.066031 2.217715,2.385001 1.594172,0.416885 2.119014,1.276615 1.866667,3.057741 -0.350756,2.475731 -0.367087,2.478035 -19.616653,2.767746 -10.596081,0.159473 -19.596081,-0.04052 -20,-0.444445 z m 37.665605,-2.512174 c 0,-0.669281 -6.755556,-1.066667 -18.133334,-1.066667 -11.377778,0 -18.133333,0.397386 -18.133333,1.066667 0,0.669281 6.755555,1.066667 18.133333,1.066667 11.377778,0 18.133334,-0.397386 18.133334,-1.066667 z M 46.662148,47.20452 c 0,-2.023932 -0.711112,-2.133334 -13.866667,-2.133334 -13.155555,0 -13.866666,0.109402 -13.866666,2.133334 0,2.023932 0.711111,2.133333 13.866666,2.133333 13.155555,0 13.866667,-0.109401 13.866667,-2.133333 z M 44.719073,33.736653 c -0.211837,-6.343015 0.09419,-10.709915 0.8,-11.415725 2.450494,-2.450494 0.667925,-2.849742 -12.723592,-2.849742 -13.210877,0 -15.155669,0.411398 -12.858237,2.72 1.180466,1.186204 1.755581,18.863258 0.670814,20.618447 -0.529194,0.856256 2.831303,1.195564 11.857805,1.197278 l 12.596285,0.0024 z m 4.076408,-17.9988 c 0,-1.955555 -0.568888,-2.666667 -2.133333,-2.666667 -1.173333,0 -2.133333,0.48 -2.133333,1.066667 0,0.586667 -1.92,1.066667 -4.266667,1.066667 -2.346667,0 -4.266667,-0.48 -4.266667,-1.066667 0,-0.586667 -1.44,-1.066667 -3.2,-1.066667 -1.76,0 -3.2,0.48 -3.2,1.066667 0,1.390537 -7.1406,1.390537 -8,0 -0.36258,-0.586667 -1.590907,-1.066667 -2.729618,-1.066667 -1.497296,0 -2.070382,0.738139 -2.070382,2.666667 v 2.666667 h 16 16 z"
     id="path19328"
     inkscape:connector-curvature="0" />
  <path
     style="fill:#ffffff;stroke-width:0.27118644"
     d="m 22.60371,43.551673 c -1.917643,-0.280708 -2.000486,-0.35821 -1.668143,-1.560584 0.361719,-1.308657 0.116027,-15.285591 -0.310539,-17.665919 -0.17109,-0.954715 -0.549509,-2.038969 -0.840932,-2.409453 -0.291422,-0.370483 -0.529859,-0.84322 -0.529859,-1.050526 0,-0.944076 1.242565,-1.041462 13.288136,-1.041462 13.934351,0 14.736762,0.11827 13.289055,1.95873 -1.077049,1.369246 -1.214422,2.56914 -1.172885,10.24466 0.02179,4.027118 0.122305,8.328813 0.223359,9.559322 l 0.183735,2.237288 -10.532818,-0.03383 C 28.739768,43.771289 23.371669,43.664088 22.60371,43.551673 Z"
     id="path19330"
     inkscape:connector-curvature="0" />
  <path
     style="fill:#ffffff;stroke-width:0.27118644"
     d="m 16.855774,16.322292 c 0.130743,-2.589087 0.636133,-3.258975 2.315862,-3.069645 0.636402,0.07173 1.687286,0.491482 2.381206,0.951116 2.164541,1.433733 6.57676,1.515017 7.945402,0.146375 0.875463,-0.875463 1.711075,-1.170477 3.315315,-1.170477 1.567497,0 2.681026,0.377664 3.169415,1.074936 0.406246,0.579998 2.485545,1.097723 4.369357,1.087926 2.085822,-0.01085 3.64422,-0.489306 4.445942,-1.364994 0.569342,-0.62187 0.963853,-0.797868 1.788477,-0.797868 1.539428,0 1.961329,0.607169 2.149345,3.093181 l 0.15575,2.059361 H 32.823061 16.754278 Z"
     id="path19332"
     inkscape:connector-curvature="0" />
  <path
     style="fill:#ffffff;stroke-width:0.27118644"
     d="m 21.830508,48.985519 c -2.124916,-0.278842 -2.54676,-0.475213 -2.748623,-1.279497 -0.272824,-1.087017 0.286864,-1.926834 1.448008,-2.172748 0.566186,-0.119911 6.21587,-0.21802 12.554853,-0.21802 9.176305,0 11.705765,0.07609 12.410229,0.373313 1.529668,0.645388 1.521085,2.440696 -0.01453,3.039173 -1.016436,0.396137 -20.940645,0.613307 -23.649937,0.257779 z"
     id="path19334"
     inkscape:connector-curvature="0" />
  <path
     style="fill:#ffffff;stroke-width:0.27118644"
     d="M 22.101695,53.309886 C 16.833471,53.106128 14.7236,52.856061 15.099671,52.47999 c 1.038667,-1.038667 33.765693,-1.087485 35.439746,-0.05287 1.364182,0.843111 -15.737278,1.373973 -28.437722,0.882761 z"
     id="path19336"
     inkscape:connector-curvature="0" />
</svg>
