<?xml version="1.0" encoding="UTF-8" standalone="no"?>
<!-- Created with Inkscape (http://www.inkscape.org/) -->

<svg
   xmlns:dc="http://purl.org/dc/elements/1.1/"
   xmlns:cc="http://creativecommons.org/ns#"
   xmlns:rdf="http://www.w3.org/1999/02/22-rdf-syntax-ns#"
   xmlns:svg="http://www.w3.org/2000/svg"
   xmlns="http://www.w3.org/2000/svg"
   xmlns:sodipodi="http://sodipodi.sourceforge.net/DTD/sodipodi-0.dtd"
   xmlns:inkscape="http://www.inkscape.org/namespaces/inkscape"
   version="1.1"
   id="svg19262"
   width="64"
   height="64"
   viewBox="0 0 64 64"
   sodipodi:docname="Chess_ql.svg"
   inkscape:version="0.92.3 (2405546, 2018-03-11)">
  <metadata
     id="metadata19268">
    <rdf:RDF>
      <cc:Work
         rdf:about="">
        <dc:format>image/svg+xml</dc:format>
        <dc:type
           rdf:resource="http://purl.org/dc/dcmitype/StillImage" />
        <dc:title></dc:title>
      </cc:Work>
    </rdf:RDF>
  </metadata>
  <defs
     id="defs19266" />
  <sodipodi:namedview
     pagecolor="#ffffff"
     bordercolor="#666666"
     borderopacity="1"
     objecttolerance="10"
     gridtolerance="10"
     guidetolerance="10"
     inkscape:pageopacity="0"
     inkscape:pageshadow="2"
     inkscape:window-width="1304"
     inkscape:window-height="745"
     id="namedview19264"
     showgrid="false"
     inkscape:zoom="3.6875"
     inkscape:cx="32"
     inkscape:cy="32"
     inkscape:window-x="54"
     inkscape:window-y="-8"
     inkscape:window-maximized="1"
     inkscape:current-layer="svg19262" />
  <path
     style="fill:#000000;stroke-width:1.06666672"
     d="m 18.401072,56.484059 c -4.868829,-0.587193 -5.751373,-2.333237 -3.945345,-7.805556 1.207915,-3.660017 1.126176,-4.413633 -0.772334,-7.120689 -1.244064,-1.773893 -2.67484,-6.63228 -3.455419,-11.733331 -1.0693083,-6.987881 -1.7303409,-8.809981 -3.3497769,-9.233473 -2.560472,-0.669579 -2.767814,-5.839725 -0.272593,-6.797231 2.6781706,-1.027711 5.1824059,1.16366 5.2420989,4.587183 0.02956,1.695495 1.469562,5.212807 3.2,7.816249 l 3.14625,4.733533 0.318266,-7.259191 c 0.238706,-5.444527 -0.101034,-7.722511 -1.35905,-9.112606 -1.829489,-2.021563 -1.278249,-4.8577732 1.123257,-5.7793172 3.644522,-1.398534 6.643221,2.2708092 4.56947,5.5914112 -0.912943,1.461854 -0.630909,3.395989 1.245698,8.542762 1.334207,3.659189 2.765394,6.269852 3.180415,5.801473 1.617756,-1.825744 3.209421,-13.407933 2.036743,-14.820923 -1.82928,-2.204149 -0.740059,-6.2556302 1.778539,-6.6154812 3.388475,-0.484136 5.355824,2.445418 3.708856,5.5228072 -1.060329,1.981242 -1.020499,3.911332 0.20286,9.830306 l 1.522234,7.365028 2.88577,-6.377793 c 2.431358,-5.373503 2.684706,-6.753485 1.608904,-8.763638 -1.602999,-2.995232 0.412891,-5.9203682 3.751366,-5.4433762 2.502039,0.357484 3.671539,4.6332732 1.783648,6.5211642 -0.636337,0.636337 -1.156976,4.292401 -1.156976,8.124587 v 6.96761 l 2.89265,-4.24761 c 1.590958,-2.336186 3.150958,-6.167611 3.466667,-8.514277 0.488106,-3.62809 0.955727,-4.266667 3.124431,-4.266667 1.402727,0 3.082727,0.870071 3.733333,1.933493 0.960729,1.57032 0.724889,2.309532 -1.255586,3.93549 -1.843335,1.513369 -2.806089,4.092726 -3.944565,10.568054 -0.927278,5.274103 -2.41976,9.8019 -3.883619,11.781874 -1.947067,2.63355 -2.167753,3.653267 -1.218825,5.631789 3.69653,7.707283 2.473616,8.519178 -13.342353,8.858021 -6.878006,0.147355 -14.332263,0.0476 -16.565014,-0.221675 z m 22.623285,-2.111263 c 5.921003,-0.618867 6.576635,-0.923479 6.289804,-2.922297 -0.261324,-1.821069 -1.399057,-2.395999 -6.186875,-3.126412 -7.171478,-1.094056 -22.116811,-0.156649 -24.129141,1.513437 -2.915524,2.419669 -1.610718,4.031573 3.595808,4.442114 9.658204,0.761561 13.852503,0.780685 20.430404,0.09316 z m 4.369596,-9.709116 c 0,-0.995556 -3.377778,-1.333334 -13.333334,-1.333334 -9.955555,0 -13.333333,0.337778 -13.333333,1.333334 0,0.995555 3.377778,1.333333 13.333333,1.333333 9.955556,0 13.333334,-0.337778 13.333334,-1.333333 z m 3.199667,-5.066266 c 1.484086,-1.788214 -4.035066,-2.640275 -17.199667,-2.655328 -12.268938,-0.01403 -16.981157,0.755823 -16.252299,2.655196 0.734086,1.912999 31.864325,1.913122 33.451966,1.32e-4 z M 16.267628,35.021265 c 0.937684,-0.596138 0.691544,-1.729164 -0.93306,-4.29505 -2.671335,-4.219085 -3.140374,-3.975859 -2.301506,1.193476 0.661837,4.078424 1.074958,4.474559 3.234566,3.101574 z m 34.818759,-4.953227 0.636938,-4.195642 -2.755921,4.055704 c -2.204812,3.244672 -2.466164,4.234782 -1.306936,4.951224 1.942014,1.200231 2.668115,0.180509 3.425919,-4.811286 z M 23.901012,28.66368 c -1.244649,-3.373334 -2.437912,-6.333334 -2.651695,-6.577778 -0.213784,-0.244444 -0.388698,2.515556 -0.388698,6.133333 0,6.295282 0.113883,6.577778 2.651696,6.577778 h 2.651695 z m 19.359607,0.266666 c 0,-3.226666 -0.233558,-5.866666 -0.519018,-5.866666 -0.534459,0 -2.930128,5.343838 -4.225834,9.426245 -0.620833,1.95607 -0.315578,2.307088 2.006305,2.307088 2.60834,0 2.738547,-0.278938 2.738547,-5.866667 z m -8.866737,3.336373 c -0.308905,-0.804996 -0.910598,-3.790604 -1.337095,-6.634686 -0.852172,-5.682689 -1.694093,-4.710472 -3.087199,3.56498 -0.740816,4.400658 -0.679022,4.533333 2.111395,4.533333 1.997883,0 2.703258,-0.446369 2.312899,-1.463627 z M 9.2872857,17.197013 c 0,-0.557333 -0.516,-1.185333 -1.1466666,-1.395555 -0.630666,-0.210223 -1.146666,0.417777 -1.146666,1.395555 0,0.977778 0.516,1.605778 1.146666,1.395555 0.6306666,-0.210222 1.1466666,-0.838222 1.1466666,-1.395555 z m 46.9333333,0 c 0,-0.557333 -0.516,-1.185333 -1.146666,-1.395555 -0.630667,-0.210223 -1.146667,0.417777 -1.146667,1.395555 0,0.977778 0.516,1.605778 1.146667,1.395555 0.630666,-0.210222 1.146666,-0.838222 1.146666,-1.395555 z M 45.393953,12.930346 c 0,-0.88 -0.451672,-1.6 -1.003716,-1.6 -1.345043,0 -2.308368,1.665695 -1.456174,2.517888 1.201262,1.201263 2.45989,0.731616 2.45989,-0.917888 z M 20.860619,12.397013 c 0,-0.586667 -0.48,-1.066667 -1.066666,-1.066667 -0.586667,0 -1.066667,0.48 -1.066667,1.066667 0,0.586667 0.48,1.066667 1.066667,1.066667 0.586666,0 1.066666,-0.48 1.066666,-1.066667 z m 11.893334,-1.6 c 0,-0.557333 -0.516,-1.1853332 -1.146667,-1.3955552 -0.630667,-0.210223 -1.146667,0.417777 -1.146667,1.3955552 0,0.977778 0.516,1.605778 1.146667,1.395555 0.630667,-0.210222 1.146667,-0.838222 1.146667,-1.395555 z"
     id="path19272"
     inkscape:connector-curvature="0" />
  <path
     style="fill:#ffffff;stroke-width:0.27118644"
     d="m 13.990095,35.077966 c -0.415349,-0.641133 -1.241985,-4.872062 -1.243466,-6.36437 -0.0012,-1.220705 0.459707,-0.947847 1.82674,1.081404 1.391699,2.065866 2.296799,4.074138 2.084958,4.626186 -0.136032,0.354495 -1.66054,1.26695 -2.116788,1.26695 -0.08589,0 -0.334035,-0.274577 -0.551444,-0.61017 z"
     id="path19274"
     inkscape:connector-curvature="0" />
  <path
     style="fill:#ffffff;stroke-width:0.27118644"
     d="M 7.3145472,18.047028 C 6.6066345,16.724281 7.6460075,15.364395 8.662092,16.283939 9.3631433,16.918382 9.3671935,17.37179 8.677966,18.061017 7.991311,18.747672 7.6878541,18.744558 7.3145471,18.047027 Z"
     id="path19276"
     inkscape:connector-curvature="0" />
  <path
     style="fill:#ffffff;stroke-width:0.27118644"
     d=""
     id="path19278"
     inkscape:connector-curvature="0" />
  <path
     style="fill:#ffffff;stroke-width:0.27118644"
     d="m 30.824859,11.914124 c -0.341752,-0.341752 -0.18041,-1.9226061 0.231075,-2.2641084 0.337056,-0.2797312 0.509459,-0.2534993 0.949153,0.1444184 0.295507,0.26743 0.537286,0.768115 0.537286,1.112631 0,0.806359 -1.209202,1.515371 -1.717514,1.007059 z"
     id="path19280"
     inkscape:connector-curvature="0" />
  <path
     style="fill:#ffffff;stroke-width:0.27118644"
     d="m 29.84638,33.005928 c -0.424688,-0.793537 0.999329,-9.018276 1.813207,-10.472595 0.261572,-0.467403 0.288993,-0.464943 0.56495,0.05069 0.15952,0.298064 0.546524,2.056561 0.860011,3.90777 0.313487,1.851209 0.741625,4.030826 0.951418,4.843593 0.50665,1.962832 0.298705,2.183259 -2.05963,2.183259 -1.542235,0 -1.901892,-0.08658 -2.129956,-0.512716 z"
     id="path19284"
     inkscape:connector-curvature="0" />
  <path
     style="fill:#ffffff;stroke-width:0.27118644"
     d="m 21.717123,34.351668 c -0.720555,-0.45608 -1.054671,-6.286742 -0.599401,-10.460143 l 0.1775,-1.627118 1.174343,2.983051 c 0.645888,1.640678 1.577588,4.081356 2.070443,5.423728 0.492855,1.342373 1.027582,2.776272 1.188283,3.186441 l 0.292183,0.745763 -1.95939,-0.0042 C 22.98342,34.59689 21.928638,34.4855 21.717123,34.351621 Z"
     id="path19286"
     inkscape:connector-curvature="0" />
  <path
     style="fill:#ffffff;stroke-width:0.27118644"
     d="m 43.172881,13.938983 c -0.823903,-0.823904 -0.05109,-2.386441 1.180306,-2.386441 0.743672,0 1.108152,0.900105 0.823588,2.033899 -0.130473,0.519846 -0.346049,0.677966 -0.924315,0.677966 -0.414785,0 -0.900596,-0.146441 -1.079579,-0.325424 z"
     id="path19288"
     inkscape:connector-curvature="0" />
  <path
     style="fill:#ffffff;stroke-width:0.27118644"
     d="m 38.54858,34.244934 c -0.244879,-0.295061 -0.186544,-0.801858 0.257945,-2.240948 0.658356,-2.131509 2.522516,-6.576961 3.344119,-7.9747 l 0.556645,-0.946985 0.173592,0.811392 c 0.09548,0.446265 0.186232,2.702917 0.20168,5.014782 0.03601,5.389449 -0.02528,5.531281 -2.436621,5.638536 -1.277354,0.05682 -1.870393,-0.0286 -2.09736,-0.302077 z"
     id="path19290"
     inkscape:connector-curvature="0" />
  <path
     style="fill:#ffffff;stroke-width:0.27118644"
     d="m 47.789154,34.723606 c -1.095108,-0.767044 -0.759529,-1.717103 2.101912,-5.950725 l 1.649618,-2.440678 -0.170259,1.220339 c -0.398487,2.856167 -1.197453,6.327177 -1.596643,6.936419 -0.497169,0.758775 -1.129577,0.833546 -1.984628,0.234645 z"
     id="path19292"
     inkscape:connector-curvature="0" />
  <path
     style="fill:#ffffff;stroke-width:0.27118644"
     d="m 54.187945,17.925424 c -0.358541,-0.786912 0.05804,-2.033899 0.679465,-2.033899 0.438733,0 1.268183,0.856466 1.268183,1.309489 0,0.390779 -0.982289,1.402376 -1.361746,1.402376 -0.15235,0 -0.416006,-0.305085 -0.585902,-0.677966 z"
     id="path19294"
     inkscape:connector-curvature="0" />
  <path
     style="fill:#ffffff;stroke-width:0.27118644"
     d="m 19.138552,13.025235 c -0.584801,-0.584801 -0.08498,-1.539399 0.744204,-1.421353 1.001961,0.142643 0.879477,1.81993 -0.134572,1.842813 -0.101211,0.0023 -0.375545,-0.187373 -0.609632,-0.42146 z"
     id="path19296"
     inkscape:connector-curvature="0" />
  <path
     style="fill:#ffffff;stroke-width:0.27118644"
     d="m 21.423729,40.673591 c -1.81502,-0.15185 -5.422158,-0.662892 -5.857145,-0.829812 -0.52987,-0.20333 -0.473972,-0.732432 0.135668,-1.284148 0.961211,-0.869884 4.386979,-1.254851 12.636731,-1.420041 11.233165,-0.224928 18.51181,0.3269 19.978647,1.514674 l 0.595053,0.481844 -0.659731,0.426281 c -1.25766,0.812627 -4.555103,1.059845 -15.168206,1.1372 -5.742373,0.04185 -10.989831,0.03015 -11.661017,-0.026 z"
     id="path19298"
     inkscape:connector-curvature="0" />
  <path
     style="fill:#ffffff;stroke-width:0.27118644"
     d="m 23.977083,45.733787 c -3.624766,-0.204814 -4.994032,-0.50991 -4.994032,-1.112752 0,-0.762247 1.708735,-0.909577 11.718669,-1.010401 9.936,-0.10008 13.772332,0.104096 14.436575,0.768339 0.411893,0.411894 -0.145235,0.767828 -1.647906,1.052804 -1.908759,0.361989 -14.894796,0.562975 -19.513306,0.30201 z"
     id="path19300"
     inkscape:connector-curvature="0" />
  <path
     style="fill:#ffffff;stroke-width:0.27118644"
     d="M 22.779661,54.362178 C 21.064407,54.234262 19.00242,53.99502 18.197468,53.830529 16.532085,53.49021 15.361179,52.548615 15.636363,51.770991 c 0.249584,-0.705284 1.198366,-1.701967 2.034183,-2.136882 2.209797,-1.149863 13.564802,-2.014576 19.964076,-1.520316 7.03667,0.54349 9.551819,1.522712 9.551819,3.718807 0,1.556581 -0.725495,1.830469 -6.461134,2.439204 -4.026976,0.427391 -12.831933,0.471733 -17.945646,0.09037 z"
     id="path19302"
     inkscape:connector-curvature="0" />
</svg>
