<?xml version="1.0" encoding="UTF-8" standalone="no"?>
<!-- Created with Inkscape (http://www.inkscape.org/) -->

<svg
   xmlns:dc="http://purl.org/dc/elements/1.1/"
   xmlns:cc="http://creativecommons.org/ns#"
   xmlns:rdf="http://www.w3.org/1999/02/22-rdf-syntax-ns#"
   xmlns:svg="http://www.w3.org/2000/svg"
   xmlns="http://www.w3.org/2000/svg"
   xmlns:sodipodi="http://sodipodi.sourceforge.net/DTD/sodipodi-0.dtd"
   xmlns:inkscape="http://www.inkscape.org/namespaces/inkscape"
   version="1.1"
   id="svg18752"
   width="64"
   height="64"
   viewBox="0 0 64 64"
   sodipodi:docname="Chess_kd.svg"
   inkscape:version="0.92.3 (2405546, 2018-03-11)">
  <metadata
     id="metadata18758">
    <rdf:RDF>
      <cc:Work
         rdf:about="">
        <dc:format>image/svg+xml</dc:format>
        <dc:type
           rdf:resource="http://purl.org/dc/dcmitype/StillImage" />
        <dc:title></dc:title>
      </cc:Work>
    </rdf:RDF>
  </metadata>
  <defs
     id="defs18756" />
  <sodipodi:namedview
     pagecolor="#ffffff"
     bordercolor="#666666"
     borderopacity="1"
     objecttolerance="10"
     gridtolerance="10"
     guidetolerance="10"
     inkscape:pageopacity="0"
     inkscape:pageshadow="2"
     inkscape:window-width="1304"
     inkscape:window-height="745"
     id="namedview18754"
     showgrid="false"
     inkscape:zoom="3.6875"
     inkscape:cx="32"
     inkscape:cy="32"
     inkscape:window-x="54"
     inkscape:window-y="-8"
     inkscape:window-maximized="1"
     inkscape:current-layer="svg18752" />
  <path
     style="fill:#000000;stroke-width:1.06666672"
     d="m 21.871187,54.797595 c -7.846215,-2.265514 -2.132451,-4.680617 10.933333,-4.621319 5.156996,0.0234 9.584471,0.617527 11.189969,1.501581 l 2.656636,1.462857 -3.723302,1.343973 c -4.359948,1.573779 -16.086315,1.748037 -21.056636,0.312908 z m -5.6,-5.67552 c 0,-2.009771 8.20984,-4.072474 16.065183,-4.03634 8.104348,0.03728 15.934817,2.072059 15.934817,4.140733 0,1.724161 0.401155,1.7357 -4.8,-0.138083 -5.492514,-1.978747 -15.894538,-2.041987 -22.230474,-0.135151 -3.87201,1.165305 -4.969526,1.202592 -4.969526,0.168841 z m 0.181157,-4.874588 c 1.372607,-4.117819 21.560628,-5.591682 28.88551,-2.108839 3.525662,1.676386 3.936464,3.746586 0.533333,2.687692 -9.2232,-2.869829 -20.482329,-2.849962 -27.87888,0.04919 -1.431219,0.56098 -1.875858,0.379643 -1.539963,-0.628045 z M 49.871187,39.99096 c 1.061852,-1.173333 2.17064,-2.133333 2.463973,-2.133333 0.293334,0 -0.335455,0.96 -1.397306,2.133333 -1.061852,1.173334 -2.17064,2.133334 -2.463974,2.133334 -0.293333,0 0.335455,-0.96 1.397307,-2.133334 z m -38.38934,-2.122207 c -1.6803253,-1.75388 -2.8501283,-3.322608 -2.5995643,-3.48606 0.250563,-0.163453 1.9744443,1.27154 3.8308453,3.188873 1.8564,1.917334 3.026204,3.486061 2.599564,3.486061 -0.426641,0 -2.150522,-1.434993 -3.830845,-3.188874 z m 3.223518,-1.509803 c -4.9742103,-4.691284 -4.9656293,-9.426389 0.02052,-11.322119 5.643352,-2.145599 16.478636,4.585051 16.478636,10.236181 0,2.233404 -0.497868,2.584615 -3.663893,2.584615 -2.015142,0 -4.879762,0.462272 -6.365823,1.027271 -2.319538,0.881887 -3.235124,0.524403 -6.46944,-2.525948 z m 28.232489,2.504203 c -1.466667,-0.436081 -4.226667,-0.840722 -6.133334,-0.899201 -4.561291,-0.139898 -4.624469,-2.980096 -0.178916,-8.043301 6.087843,-6.93367 16.008543,-7.058149 16.79382,-0.210719 0.587534,5.123151 -5.666738,10.584808 -10.48157,9.153221 z M 7.9062737,30.39096 c 0,-1.466666 0.242106,-2.066666 0.538012,-1.333333 0.295907,0.733333 0.295907,1.933333 0,2.666667 -0.295906,0.733333 -0.538012,0.133333 -0.538012,-1.333334 z M 29.329984,27.565996 C 23.248878,21.383787 15.529951,20.453559 10.835739,25.337207 l -2.2944923,2.387087 1.222749,-2.375554 c 2.3916323,-4.646454 8.3152283,-5.883971 14.0268283,-2.930388 2.949134,1.525056 3.14703,1.500565 3.14703,-0.389483 0,-1.109283 0.96,-3.237319 2.133333,-4.728971 2.605805,-3.312745 2.757861,-6.108938 0.332202,-6.108938 -1.471068,0 -1.337981,-0.431491 0.726241,-2.3546072 1.674803,-1.560316 2.672197,-1.92014 2.956688,-1.066666 0.236122,0.708367 1.109314,1.28794 1.940424,1.28794 0.831112,0 1.511112,0.48 1.511112,1.0666672 0,0.586666 -0.72,1.066666 -1.6,1.066666 -2.109808,0 -2.068027,3.858826 0.05058,4.671813 0.907822,0.348363 2.145626,2.053464 2.750676,3.789113 0.979882,2.81089 1.389895,3.045543 3.752189,2.1474 1.458656,-0.55458 4.024024,-1.008326 5.700819,-1.008326 3.507695,0 9.620182,4.646347 9.596677,7.294821 -0.01058,1.191843 -0.457254,0.89893 -1.364549,-0.894821 -3.307518,-6.539062 -12.524814,-6.591207 -18.971973,-0.107329 l -3.818913,3.840663 z"
     id="path18762"
     inkscape:connector-curvature="0" />
</svg>
