<?xml version="1.0" encoding="UTF-8" standalone="no"?>
<!-- Created with Inkscape (http://www.inkscape.org/) -->

<svg
   xmlns:dc="http://purl.org/dc/elements/1.1/"
   xmlns:cc="http://creativecommons.org/ns#"
   xmlns:rdf="http://www.w3.org/1999/02/22-rdf-syntax-ns#"
   xmlns:svg="http://www.w3.org/2000/svg"
   xmlns="http://www.w3.org/2000/svg"
   xmlns:sodipodi="http://sodipodi.sourceforge.net/DTD/sodipodi-0.dtd"
   xmlns:inkscape="http://www.inkscape.org/namespaces/inkscape"
   version="1.1"
   id="svg18764"
   width="64"
   height="64"
   viewBox="0 0 64 64"
   sodipodi:docname="Chess_kl.svg"
   inkscape:version="0.92.3 (2405546, 2018-03-11)">
  <metadata
     id="metadata18770">
    <rdf:RDF>
      <cc:Work
         rdf:about="">
        <dc:format>image/svg+xml</dc:format>
        <dc:type
           rdf:resource="http://purl.org/dc/dcmitype/StillImage" />
        <dc:title></dc:title>
      </cc:Work>
    </rdf:RDF>
  </metadata>
  <defs
     id="defs18768" />
  <sodipodi:namedview
     pagecolor="#ffffff"
     bordercolor="#666666"
     borderopacity="1"
     objecttolerance="10"
     gridtolerance="10"
     guidetolerance="10"
     inkscape:pageopacity="0"
     inkscape:pageshadow="2"
     inkscape:window-width="1304"
     inkscape:window-height="745"
     id="namedview18766"
     showgrid="false"
     inkscape:zoom="3.6875"
     inkscape:cx="32"
     inkscape:cy="32"
     inkscape:window-x="54"
     inkscape:window-y="-8"
     inkscape:window-maximized="1"
     inkscape:current-layer="svg18764" />
  <path
     style="fill:#000000;stroke-width:1.06666672"
     d="m 19.444068,54.965648 c -2.346667,-0.880107 -4.386667,-1.607422 -4.533333,-1.616255 -0.146667,-0.0088 -0.266667,-2.448292 -0.266667,-5.421022 0,-4.795325 -0.421091,-5.802102 -3.733333,-8.925949 -3.1089518,-2.932119 -3.7333338,-4.266209 -3.7333338,-7.976856 0,-6.45897 3.7898118,-10.066248 9.9212468,-9.443401 2.463314,0.25023 5.318753,0.827964 6.34542,1.283854 1.325665,0.588659 1.866667,0.35582 1.866667,-0.803391 0,-0.897754 1.2,-3.0584 2.666666,-4.801434 3.02986,-3.600783 3.401712,-5.527861 1.066667,-5.527861 -0.88,0 -1.6,-0.48 -1.6,-1.066666 0,-0.586667 0.68,-1.0666673 1.511111,-1.0666673 0.831111,0 1.791111,-0.6 2.133334,-1.333333 0.497777,-1.066667 0.746666,-1.066667 1.244444,0 0.342222,0.733333 1.302222,1.333333 2.133333,1.333333 0.831111,0 1.511111,0.4800003 1.511111,1.0666673 0,0.586666 -0.72,1.066666 -1.6,1.066666 -2.265217,0 -1.983574,2.816426 0.533334,5.333334 1.173333,1.173333 2.133333,3.110222 2.133333,4.304196 0,1.815732 0.337514,1.990227 2.063214,1.066667 3.43991,-1.840989 10.19116,-1.307079 13.17771,1.042135 5.52043,4.342378 4.40547,12.178607 -2.42483,17.042208 -2.80769,1.999248 -3.21609,2.93637 -3.21609,7.379545 0,4.502933 -0.33806,5.250225 -2.93334,6.484228 -4.49478,2.137184 -19.178885,2.488151 -24.266664,0.580002 z m 21.946994,-2.215296 c 1.15435,-0.713424 0.88865,-1.095562 -1.15775,-1.665141 -5.948221,-1.655583 -24.94981,-0.26399 -20.255911,1.483455 0.88,0.327606 2.32,0.864813 3.2,1.193794 2.314762,0.865352 16.446481,0.08007 18.213661,-1.012108 z M 30.644068,48.533333 c 4.986667,0 10.146664,0.392346 11.466664,0.871881 1.50193,0.545624 2.4,0.459881 2.4,-0.229138 0,-2.354671 -5.09948,-3.72428 -13.866664,-3.72428 -8.767183,0 -13.866667,1.369609 -13.866667,3.72428 0,0.689019 0.898074,0.774762 2.4,0.229138 1.32,-0.479535 6.48,-0.871881 11.466667,-0.871881 z m -3.64279,-5.456126 c 2.983131,-0.364573 7.973176,-0.116134 11.088984,0.552088 5.93273,1.272342 7.65395,0.910847 5.5727,-1.170398 -1.7929,-1.792902 -18.353806,-2.442519 -23.018797,-0.902933 -4.16497,1.374564 -5.488,3.934888 -1.466764,2.838478 1.32,-0.359905 4.840745,-0.952661 7.823877,-1.317235 z m -2.223877,-4.521914 c 7.114448,-0.9186 7.654815,-3.654246 1.933387,-9.787918 -7.323754,-7.851451 -17.4000528,-6.53613 -17.4000528,2.271334 0,3.993039 5.7059428,10.014892 8.4332198,8.900126 0.935062,-0.382204 4.100113,-1.004798 7.033446,-1.383542 z M 49.789162,37.6 c 4.59642,-4.241543 5.19478,-8.023766 1.80555,-11.412989 -6.49829,-6.498294 -18.817311,-0.283337 -18.817311,9.493352 0,2.341818 0.481598,2.730052 3.466667,2.794608 1.906664,0.04124 4.426664,0.487497 5.600004,0.991696 3.46459,1.488789 4.59729,1.222668 7.94509,-1.866667 z M 34.887016,23.287239 c 0.06795,-5.097626 -4.177448,-7.129128 -6.363245,-3.044932 -0.841573,1.572495 -0.700524,3.132689 0.554483,6.133334 L 30.761425,30.4 32.812361,27.733333 c 1.128015,-1.466666 2.06161,-3.467409 2.074655,-4.446094 z"
     id="path18774"
     inkscape:connector-curvature="0" />
  <path
     style="fill:#ffffff;stroke-width:0.27118644"
     d="m 29.539598,27.096686 c -1.41983,-3.532749 -1.626691,-5.233645 -0.827122,-6.80093 0.723617,-1.418406 1.509951,-1.963553 2.832282,-1.963553 2.651944,0 4.030102,4.007171 2.451366,7.12766 -0.625379,1.236107 -2.954643,4.533357 -3.202482,4.533357 -0.04945,0 -0.613772,-1.30344 -1.254044,-2.896534 z"
     id="path18776"
     inkscape:connector-curvature="0" />
  <path
     style="fill:#ffffff;stroke-width:0.27118644"
     d="m 43.118644,39.742609 c -1.920729,-0.692802 -5.123069,-1.338391 -6.73572,-1.357915 -0.695354,-0.0084 -1.684388,-0.160961 -2.197853,-0.338983 -1.220277,-0.423079 -1.53883,-1.53549 -1.137476,-3.972145 0.646393,-3.924309 3.205574,-7.271938 6.988504,-9.141563 2.039073,-1.007765 2.195231,-1.040478 4.966786,-1.040478 2.450684,0 3.025914,0.08784 4.006524,0.611835 3.976484,2.124842 5.558851,5.795263 3.886611,9.015284 -1.36309,2.624729 -6.21906,6.805383 -7.86452,6.770808 -0.231732,-0.0049 -1.092517,-0.250948 -1.912856,-0.546843 z"
     id="path18778"
     inkscape:connector-curvature="0" />
  <path
     style="fill:#ffffff;stroke-width:0.27118644"
     d="M 15.248945,39.329509 C 13.475084,38.445557 11.394517,36.179478 10.282059,33.919755 9.5025145,32.336274 9.4312484,31.987187 9.5499465,30.333603 10.11256,22.495833 19.023874,21.433086 26.047783,28.366102 c 2.734952,2.69956 4.096634,4.768575 4.260464,6.473585 0.119153,1.240056 0.07377,1.355441 -0.78581,1.997846 -1.194496,0.892703 -2.130242,1.168136 -6.200403,1.82506 -1.864407,0.300916 -4.061017,0.729587 -4.881356,0.952604 -1.859696,0.505575 -1.547864,0.533486 -3.191733,-0.285688 z"
     id="path18780"
     inkscape:connector-curvature="0" />
  <path
     style="fill:#ffffff;stroke-width:0.27118644"
     d="m 17.112915,44.387212 c -0.529315,-0.332308 0.673368,-1.503241 2.228828,-2.169989 2.470886,-1.059146 4.132435,-1.241524 11.166732,-1.225708 8.899148,0.02001 12.8329,0.679152 13.697789,2.295211 0.599076,1.119383 -1.019745,1.160277 -6.557604,0.165656 -3.653173,-0.656125 -7.621997,-0.824524 -10.806437,-0.458523 -2.486771,0.285815 -7.775671,1.181691 -8.943918,1.514993 -0.223729,0.06383 -0.577154,0.0091 -0.78539,-0.12164 z"
     id="path18782"
     inkscape:connector-curvature="0" />
  <path
     style="fill:#ffffff;stroke-width:0.27118644"
     d="m 17.01675,49.347214 c -0.350868,-0.591909 0.413746,-1.519767 1.759072,-2.134633 2.390794,-1.092686 5.67864,-1.511382 11.868246,-1.511382 8.058544,0 12.483064,0.913654 13.446465,2.776668 0.363406,0.702748 0.359295,0.79611 -0.04183,0.950035 -0.244662,0.09389 -1.060841,0.02851 -1.813731,-0.145276 -3.804531,-0.878192 -17.454415,-1.075336 -21.489211,-0.310368 -2.738471,0.519194 -3.592603,0.605078 -3.729013,0.374956 z"
     id="path18784"
     inkscape:connector-curvature="0" />
  <path
     style="fill:#ffffff;stroke-width:0.27118644"
     d="m 24.949153,53.83898 c -1.870619,-0.188303 -5.189803,-1.313474 -5.357341,-1.816086 -0.294612,-0.883836 6.065841,-1.518612 13.542112,-1.35151 4.356353,0.09737 6.129378,0.240334 7.193409,0.580031 1.735591,0.554096 1.943933,0.842951 0.969669,1.344398 -1.13494,0.584147 -4.365704,1.009297 -8.754629,1.152061 -2.162712,0.07035 -4.359322,0.159551 -4.881356,0.198227 -0.522034,0.03868 -1.742373,-0.0095 -2.711864,-0.107121 z"
     id="path18786"
     inkscape:connector-curvature="0" />
</svg>
