<?xml version="1.0" encoding="UTF-8" standalone="no"?>
<!-- Created with Inkscape (http://www.inkscape.org/) -->

<svg
   xmlns:dc="http://purl.org/dc/elements/1.1/"
   xmlns:cc="http://creativecommons.org/ns#"
   xmlns:rdf="http://www.w3.org/1999/02/22-rdf-syntax-ns#"
   xmlns:svg="http://www.w3.org/2000/svg"
   xmlns="http://www.w3.org/2000/svg"
   xmlns:sodipodi="http://sodipodi.sourceforge.net/DTD/sodipodi-0.dtd"
   xmlns:inkscape="http://www.inkscape.org/namespaces/inkscape"
   version="1.1"
   id="svg37"
   width="64"
   height="64"
   viewBox="0 0 64 64"
   sodipodi:docname="Chess_bdis.svg"
   inkscape:version="0.92.3 (2405546, 2018-03-11)">
  <metadata
     id="metadata43">
    <rdf:RDF>
      <cc:Work
         rdf:about="">
        <dc:format>image/svg+xml</dc:format>
        <dc:type
           rdf:resource="http://purl.org/dc/dcmitype/StillImage" />
        <dc:title></dc:title>
      </cc:Work>
    </rdf:RDF>
  </metadata>
  <defs
     id="defs41" />
  <sodipodi:namedview
     pagecolor="#ffffff"
     bordercolor="#666666"
     borderopacity="1"
     objecttolerance="10"
     gridtolerance="10"
     guidetolerance="10"
     inkscape:pageopacity="0"
     inkscape:pageshadow="2"
     inkscape:window-width="1304"
     inkscape:window-height="745"
     id="namedview39"
     showgrid="false"
     inkscape:zoom="9.03125"
     inkscape:cx="32"
     inkscape:cy="35.543253"
     inkscape:window-x="54"
     inkscape:window-y="-8"
     inkscape:window-maximized="1"
     inkscape:current-layer="svg37" />
  <path
     style="fill:#000000;stroke-width:1.06666672"
     d="M 9.5838547,54.854064 C 7.9193007,52.16076 12.207267,50.158515 20.541001,49.737681 l 8.217454,-0.414963 -3.624919,-1.738175 c -6.439854,-3.087957 -4.938106,-3.871509 7.420098,-3.871509 12.399141,0 13.816137,0.75724 7.389175,3.948766 l -3.655842,1.815433 6.933334,0.06696 c 3.813333,0.03683 8.133333,0.674059 9.6,1.416069 3.220556,1.629333 3.597242,4.605113 0.533333,4.213288 -4.584707,-0.586313 -38.973817,-0.391428 -40.93805,0.231996 -1.145329,0.363512 -2.4196069,0.115346 -2.8317293,-0.551482 z M 22.150825,39.713034 c 0.297028,-0.896746 3.469562,-1.434249 9.68889,-1.641529 5.390879,-0.179668 9.247252,-0.763213 9.247252,-1.399289 0,-0.676754 -3.506398,-1.006764 -9.233492,-0.869027 -7.888534,0.189722 -9.442248,-0.06342 -10.666667,-1.737915 -3.387092,-4.632125 -0.35361,-13.415629 5.911354,-17.116434 2.514614,-1.485419 2.976041,-2.234242 2.058212,-3.340156 -1.870964,-2.254376 0.692631,-6.9294343 3.565309,-6.5018193 3.299596,0.491164 4.946666,3.5366043 3.320757,6.1400983 -1.097553,1.757461 -0.9841,2.173513 0.742088,2.721384 1.120745,0.355711 3.507281,2.320485 5.303412,4.366166 2.570847,2.928032 3.265694,4.705036 3.265694,8.351696 0,2.900906 -0.623649,5.149858 -1.668572,6.017067 -1.059113,0.878988 -1.441298,2.290318 -1.046344,3.863941 0.620403,2.471882 0.590635,2.47915 -10.15365,2.47915 -8.145131,0 -10.66806,-0.32551 -10.334243,-1.333333 z M 33.620301,28.7797 c 0,-0.88 0.691671,-1.6 1.537048,-1.6 2.555615,0 3.104892,-2.234918 0.703609,-2.862868 -1.232362,-0.32227 -2.240657,-1.249963 -2.240657,-2.061538 0,-0.811577 -0.48,-1.475594 -1.066667,-1.475594 -0.586667,0 -1.066667,0.72 -1.066667,1.6 0,0.88 -0.72,1.6 -1.6,1.6 -0.88,0 -1.6,0.72 -1.6,1.6 0,0.88 0.72,1.6 1.6,1.6 0.88,0 1.6,0.72 1.6,1.6 0,0.88 0.48,1.6 1.066667,1.6 0.586667,0 1.066667,-0.72 1.066667,-1.6 z"
     id="path18724"
     inkscape:connector-curvature="0" />
</svg>
