<?xml version="1.0" encoding="UTF-8" standalone="no"?>
<!-- Created with Inkscape (http://www.inkscape.org/) -->

<svg
   xmlns:dc="http://purl.org/dc/elements/1.1/"
   xmlns:cc="http://creativecommons.org/ns#"
   xmlns:rdf="http://www.w3.org/1999/02/22-rdf-syntax-ns#"
   xmlns:svg="http://www.w3.org/2000/svg"
   xmlns="http://www.w3.org/2000/svg"
   xmlns:sodipodi="http://sodipodi.sourceforge.net/DTD/sodipodi-0.dtd"
   xmlns:inkscape="http://www.inkscape.org/namespaces/inkscape"
   version="1.1"
   id="svg18726"
   width="64"
   height="64"
   viewBox="0 0 64 64"
   sodipodi:docname="Chess_bl.svg"
   inkscape:version="0.92.3 (2405546, 2018-03-11)">
  <metadata
     id="metadata18732">
    <rdf:RDF>
      <cc:Work
         rdf:about="">
        <dc:format>image/svg+xml</dc:format>
        <dc:type
           rdf:resource="http://purl.org/dc/dcmitype/StillImage" />
      </cc:Work>
    </rdf:RDF>
  </metadata>
  <defs
     id="defs18730" />
  <sodipodi:namedview
     pagecolor="#ffffff"
     bordercolor="#666666"
     borderopacity="1"
     objecttolerance="10"
     gridtolerance="10"
     guidetolerance="10"
     inkscape:pageopacity="0"
     inkscape:pageshadow="2"
     inkscape:window-width="1304"
     inkscape:window-height="745"
     id="namedview18728"
     showgrid="false"
     inkscape:zoom="3.6875"
     inkscape:cx="32"
     inkscape:cy="32"
     inkscape:window-x="54"
     inkscape:window-y="-8"
     inkscape:window-maximized="1"
     inkscape:current-layer="svg18726" />
  <path
     style="fill:#000000;stroke-width:1.06666672"
     d="m 10.115015,56.521772 c -1.5832634,-2.561773 2.423843,-4.473336 10.843061,-5.17261 8.033636,-0.667248 8.233281,-0.747308 4.894525,-1.962768 -4.340651,-1.580196 -5.1625,-3.592134 -3.130884,-7.664605 1.455506,-2.917631 1.419896,-3.327572 -0.434863,-5.006105 -4.318641,-3.908316 -1.321529,-14.292459 5.284685,-18.309939 2.531431,-1.539453 2.855327,-2.180337 1.881872,-3.723584 -1.591943,-2.523753 0.392173,-5.5974154 3.613256,-5.5974154 3.340923,0 5.19068,3.0754624 3.488806,5.8005964 -1.097553,1.757461 -0.9841,2.173513 0.742088,2.721384 1.120745,0.355711 3.507281,2.320485 5.303412,4.366166 3.784201,4.309967 4.507501,11.171693 1.52501,14.467308 -1.477968,1.633136 -1.540129,2.407619 -0.411861,5.1315 1.721765,4.156708 0.907561,6.054449 -3.406372,7.939544 L 36.8,51.044055 l 6.933333,0.102737 c 3.813334,0.0565 8.133334,0.709837 9.6,1.451847 3.219643,1.628871 3.595196,4.601358 0.533334,4.221313 -4.72749,-0.586785 -39.589263,-0.3592 -41.226681,0.269136 -0.966642,0.370936 -2.102879,0.115644 -2.524971,-0.567316 z M 53.701706,54.404199 C 53.205767,53.932688 48.36,53.082836 42.933333,52.515638 c -9.949731,-1.03995 -28.638574,0.117198 -30.501705,1.888561 -0.495938,0.47151 8.789829,0.857292 20.635039,0.857292 11.845209,0 21.130977,-0.385782 20.635039,-0.857292 z M 41.805387,47.357811 c 2.721289,-1.68185 -0.260539,-2.539732 -8.827609,-2.539732 -7.276562,0 -9.578453,0.331972 -9.245335,1.333334 0.243954,0.733333 1.843954,1.659139 3.555555,2.057345 3.114647,0.724627 12.895713,0.151302 14.517389,-0.850947 z m 0.86128,-4.459732 c 0,-2.303916 -3.120234,-3.413333 -9.6,-3.413333 -6.479767,0 -9.6,1.109417 -9.6,3.413333 0,0.469334 4.32,0.853334 9.6,0.853334 5.28,0 9.6,-0.384 9.6,-0.853334 z m 0.511494,-7.655868 c 3.805667,-4.205214 0.140004,-12.878192 -7.017326,-16.603034 -2.395652,-1.246754 -3.26267,-1.196732 -6.378738,0.368015 -4.070222,2.043878 -8.448764,7.916279 -8.448764,11.331289 0,1.249372 0.747218,3.338388 1.660485,4.642259 1.474208,2.104725 2.59244,2.370673 9.968012,2.370673 6.92119,0 8.626067,-0.351979 10.216331,-2.109202 z M 32,29.429625 c 0,-0.836984 -0.84,-1.741302 -1.866667,-2.009598 -1.777778,-0.464582 -1.777778,-0.493703 0,-0.611547 C 31.16,26.74043 32,25.964746 32,25.084746 c 0,-0.88 0.48,-1.6 1.066667,-1.6 0.586666,0 1.066666,0.684804 1.066666,1.521788 0,0.836983 0.84,1.741302 1.866667,2.009598 1.777778,0.464582 1.777778,0.493703 0,0.611546 -1.026667,0.06805 -1.866667,0.843735 -1.866667,1.723735 0,0.88 -0.48,1.6 -1.066666,1.6 C 32.48,30.951413 32,30.266608 32,29.429625 Z m 3.2,-15.011546 c 1.032551,-1.244148 1.044255,-1.94175 0.05262,-3.136596 -1.592652,-1.9190304 -4.319286,-0.989208 -4.319286,1.47294 0,3.413508 2.12633,4.242606 4.266666,1.663656 z"
     id="path18736"
     inkscape:connector-curvature="0" />
  <path
     style="fill:#ffffff;stroke-width:0.27118644"
     d="m 27.651593,37.063479 c -2.572632,-0.272328 -3.611867,-0.808871 -4.60747,-2.378775 -2.379784,-3.75253 -1.96803,-6.509915 1.652446,-11.065902 2.570409,-3.234589 6.335617,-5.648181 8.811173,-5.648181 1.646601,0 4.453006,1.657914 6.767148,3.997765 2.542135,2.570377 3.961294,5.368262 4.140674,8.163374 0.152663,2.378819 -0.219734,3.635891 -1.495397,5.047898 -1.376263,1.523358 -2.766104,1.849109 -8.47379,1.986088 -2.613304,0.06272 -5.670957,0.0167 -6.794784,-0.102267 z m 6.237171,-6.510058 c 0.1544,-0.288499 0.280728,-0.753624 0.280728,-1.03361 0,-0.763999 1.008697,-1.695533 1.841072,-1.700235 0.404359,-0.0023 0.907801,-0.113409 1.118759,-0.246945 0.283735,-0.179603 0.09078,-0.330511 -0.741395,-0.579837 -1.339218,-0.40124 -1.948307,-1.008792 -2.188443,-2.182924 -0.361668,-1.768357 -1.828805,-1.734006 -2.269571,0.05314 -0.29567,1.198837 -1.113242,1.875973 -2.265042,1.875973 -1.131395,0 -1.207758,0.435881 -0.118285,0.675169 1.174917,0.258055 2.11474,1.108867 2.328313,2.107797 0.103251,0.482928 0.310614,1.030593 0.460806,1.217034 0.40879,0.507449 1.235002,0.408732 1.553058,-0.185562 z"
     id="path18738"
     inkscape:connector-curvature="0" />
  <path
     style="fill:#ffffff;stroke-width:0.27118644"
     d="m 25.554991,43.285118 c -0.934585,-0.106268 -1.785572,-0.279541 -1.891082,-0.385051 -0.353986,-0.353986 0.605381,-1.647935 1.57488,-2.124124 1.554967,-0.763754 3.664787,-1.044079 7.845957,-1.042468 4.239536,0.0016 6.347064,0.288242 7.856029,1.068363 0.964701,0.498741 1.911047,1.75199 1.575973,2.087064 -0.581506,0.581506 -12.818317,0.86735 -16.961757,0.396216 z"
     id="path18742"
     inkscape:connector-curvature="0" />
  <path
     style="fill:#ffffff;stroke-width:0.27118644"
     d="m 28.20339,48.266283 c -2.567802,-0.504586 -4.828206,-1.892315 -4.164073,-2.556448 0.544647,-0.544647 5.364873,-0.864671 10.672547,-0.708571 5.437491,0.159918 7.658162,0.528065 7.805674,1.294037 0.107903,0.560292 -1.327267,1.251842 -3.331097,1.605122 -1.767493,0.311612 -9.883325,0.581962 -10.983051,0.36586 z"
     id="path18744"
     inkscape:connector-curvature="0" />
  <path
     style="fill:#ffffff;stroke-width:0.27118644"
     d="m 19.972363,54.925618 c -7.990078,-0.248573 -8.817845,-0.64625 -3.294397,-1.582701 6.318178,-1.071191 22.165448,-1.34368 28.338983,-0.487281 5.389079,0.747579 8.206243,1.311003 7.931059,1.586187 -0.595211,0.59521 -20.165257,0.882327 -32.975645,0.483795 z"
     id="path18746"
     inkscape:connector-curvature="0" />
  <path
     style="fill:#ffffff;stroke-width:0.27118644"
     d="m 31.868922,15.242728 c -0.956504,-0.956505 -0.987329,-3.309253 -0.05483,-4.185287 0.94127,-0.884277 2.228823,-0.782508 3.195753,0.252594 1.061034,1.135841 1.003666,1.937156 -0.23018,3.215156 -1.367389,1.416321 -2.044931,1.583345 -2.910739,0.717537 z"
     id="path18750"
     inkscape:connector-curvature="0" />
</svg>
