<?xml version="1.0" encoding="UTF-8" standalone="no"?>
<!-- Created with Inkscape (http://www.inkscape.org/) -->

<svg
   xmlns:dc="http://purl.org/dc/elements/1.1/"
   xmlns:cc="http://creativecommons.org/ns#"
   xmlns:rdf="http://www.w3.org/1999/02/22-rdf-syntax-ns#"
   xmlns:svg="http://www.w3.org/2000/svg"
   xmlns="http://www.w3.org/2000/svg"
   xmlns:sodipodi="http://sodipodi.sourceforge.net/DTD/sodipodi-0.dtd"
   xmlns:inkscape="http://www.inkscape.org/namespaces/inkscape"
   version="1.1"
   id="svg19250"
   width="64"
   height="64"
   viewBox="0 0 64 64"
   sodipodi:docname="Chess_qd.svg"
   inkscape:version="0.92.3 (2405546, 2018-03-11)">
  <metadata
     id="metadata19256">
    <rdf:RDF>
      <cc:Work
         rdf:about="">
        <dc:format>image/svg+xml</dc:format>
        <dc:type
           rdf:resource="http://purl.org/dc/dcmitype/StillImage" />
        <dc:title></dc:title>
      </cc:Work>
    </rdf:RDF>
  </metadata>
  <defs
     id="defs19254" />
  <sodipodi:namedview
     pagecolor="#ffffff"
     bordercolor="#666666"
     borderopacity="1"
     objecttolerance="10"
     gridtolerance="10"
     guidetolerance="10"
     inkscape:pageopacity="0"
     inkscape:pageshadow="2"
     inkscape:window-width="1304"
     inkscape:window-height="745"
     id="namedview19252"
     showgrid="false"
     inkscape:zoom="3.6875"
     inkscape:cx="32"
     inkscape:cy="32"
     inkscape:window-x="54"
     inkscape:window-y="-8"
     inkscape:window-maximized="1"
     inkscape:current-layer="svg19250" />
  <path
     style="fill:#000000;stroke-width:1.06666672"
     d="m 19.716685,56.305079 c -2.053333,-0.576767 -4.452655,-1.749941 -5.331826,-2.607055 -1.419275,-1.383666 -1.389377,-1.922753 0.266667,-4.808242 2.375198,-4.138547 2.342443,-5.098094 -0.268915,-7.877757 -1.322408,-1.40764 -2.814404,-5.693544 -3.922839,-11.268747 -1.2149075,-6.110741 -2.4318405,-9.457923 -3.7932845,-10.433459 -1.152899,-0.826104 -1.86544,-2.41221 -1.67716,-3.733334 0.252019,-1.768371 1.063807,-2.297006 3.527358,-2.297006 2.8543165,0 3.2371305,0.388203 3.5437155,3.593606 0.189045,1.976483 1.681744,5.743337 3.31711,8.370787 l 2.973393,4.777181 0.761171,-6.727857 c 0.622079,-5.498452 0.454492,-6.952106 -0.917111,-7.955046 -3.907716,-2.857393 -0.255143,-9.068129 3.949266,-6.7152235 1.986066,1.1114587 2.438682,4.1407425 0.863094,5.7765525 -0.595329,0.618084 0.121711,3.717674 1.838332,7.946667 l 2.814359,6.933333 1.496256,-6.862012 c 1.126233,-5.165045 1.199186,-7.337696 0.295002,-8.785527 -2.504061,-4.0096395 -0.05011,-8.079838 4.080891,-6.7687073 2.298336,0.7294635 3.005453,4.6352433 1.171276,6.4695803 -0.639882,0.639938 -0.636703,2.782047 0.0086,5.813333 2.32143,10.904334 2.085247,10.738874 4.866745,3.409458 1.98889,-5.240846 2.29858,-7.196827 1.404097,-8.868183 -1.459678,-2.727413 0.378433,-5.2079423 3.859157,-5.2079423 3.25035,0 4.492432,3.7283333 2.116659,6.3535323 -1.320244,1.458853 -1.671429,3.585932 -1.429475,8.658115 l 0.320755,6.724131 3.145764,-4.734555 c 1.922216,-2.893047 3.166859,-6.186639 3.2,-8.467889 0.04976,-3.424985 0.318535,-3.733334 3.254236,-3.733334 2.546626,0 3.272416,0.511548 3.554666,2.5054 0.20665,1.459801 -0.49056,3.292849 -1.67062,4.392242 -1.277238,1.189926 -2.537523,4.79531 -3.412115,9.761268 -1.816402,10.313578 -2.150464,10.669818 -8.276639,8.82611 -8.976591,-2.701557 -30.195292,-1.297572 -30.195292,1.997941 0,0.556572 0.84,0.681685 1.866667,0.278029 4.048753,-1.591854 14.66122,-2.749199 19.335253,-2.108611 10.75285,1.473706 12.374088,2.248487 12.667396,6.053686 0.148123,1.921664 0.388123,4.895941 0.533333,6.609502 0.246109,2.904226 -0.09776,3.210344 -5.069315,4.512758 -6.169964,1.616376 -19.63719,1.722363 -25.066627,0.197275 z m 26.624002,-2.103894 c 5.472011,-1.907553 3.590735,-2.923443 -2.245536,-1.212591 -5.402332,1.583647 -17.038619,1.431298 -26.511799,-0.347107 -6.059842,-1.137618 -2.645311,0.907715 4.018954,2.407389 6.581885,1.481135 19.308927,1.045027 24.738381,-0.847691 z m -1.824002,-4.177792 c 2.2,-0.610971 4,-1.529602 4,-2.041404 0,-0.5118 -1.679771,-0.46674 -3.732823,0.100135 -4.911499,1.35613 -14.331008,1.646384 -22.933844,0.706685 -6.85975,-0.749299 -6.888051,-0.741678 -2.666666,0.718025 5.113084,1.768043 19.752118,2.06654 25.333333,0.516559 z m 2.4,-6.343914 C 46.5301,43.053972 40.327831,42.612813 31.9204,42.612813 c -8.846921,0 -14.337048,0.408462 -14.337048,1.066666 0,0.660532 5.709873,1.066667 14.996284,1.066667 9.725903,0 14.7646,-0.374876 14.337049,-1.066667 z"
     id="path19260"
     inkscape:connector-curvature="0" />
</svg>
