<?xml version="1.0" encoding="UTF-8" standalone="no"?>
<!-- Created with Inkscape (http://www.inkscape.org/) -->

<svg
   xmlns:dc="http://purl.org/dc/elements/1.1/"
   xmlns:cc="http://creativecommons.org/ns#"
   xmlns:rdf="http://www.w3.org/1999/02/22-rdf-syntax-ns#"
   xmlns:svg="http://www.w3.org/2000/svg"
   xmlns="http://www.w3.org/2000/svg"
   xmlns:sodipodi="http://sodipodi.sourceforge.net/DTD/sodipodi-0.dtd"
   xmlns:inkscape="http://www.inkscape.org/namespaces/inkscape"
   version="1.1"
   id="svg18804"
   width="64"
   height="64"
   viewBox="0 0 64 64"
   sodipodi:docname="Chess_nl.svg"
   inkscape:version="0.92.3 (2405546, 2018-03-11)">
  <metadata
     id="metadata18810">
    <rdf:RDF>
      <cc:Work
         rdf:about="">
        <dc:format>image/svg+xml</dc:format>
        <dc:type
           rdf:resource="http://purl.org/dc/dcmitype/StillImage" />
        <dc:title></dc:title>
      </cc:Work>
    </rdf:RDF>
  </metadata>
  <defs
     id="defs18808" />
  <sodipodi:namedview
     pagecolor="#ffffff"
     bordercolor="#666666"
     borderopacity="1"
     objecttolerance="10"
     gridtolerance="10"
     guidetolerance="10"
     inkscape:pageopacity="0"
     inkscape:pageshadow="2"
     inkscape:window-width="1304"
     inkscape:window-height="745"
     id="namedview18806"
     showgrid="false"
     inkscape:zoom="3.6875"
     inkscape:cx="32"
     inkscape:cy="32"
     inkscape:window-x="54"
     inkscape:window-y="-8"
     inkscape:window-maximized="1"
     inkscape:current-layer="svg18804" />
  <path
     style="fill:#000000;stroke-width:1.06666672"
     d="m 21.896187,54.650948 c -1.29326,-1.293254 1.34197,-7.02408 5.49433,-11.948535 2.3814,-2.8242 4.64401,-6.793068 5.02802,-8.819707 l 0.6982,-3.6848 -3.61458,3.184706 c -1.98801,1.751588 -5.34684,4.782864 -7.46405,6.736168 -3.452053,3.184797 -4.222935,3.45534 -7.46667,2.620441 -2.326054,-0.5987 -4.112344,-1.952885 -5.0044093,-3.79384 -1.201799,-2.480153 -1.096705,-3.51959 0.7862363,-7.776292 1.195404,-2.70241 3.8387,-7.65475 5.873991,-11.0052 2.370981,-3.903055 3.492252,-6.888174 3.120838,-8.308473 -0.880469,-3.3669208 1.752874,-4.2737608 4.076744,-1.403903 l 1.99175,2.459707 2.55654,-2.401744 c 2.5285,-2.3754038 4.84779,-2.2174528 4.84779,0.330149 0,0.7237 2.1028,1.878231 4.67289,2.565625 11.69715,3.128509 17.68748,14.307871 17.71445,33.059323 l 0.0127,8.8 h -16.35559 c -8.99556,0 -16.63169,-0.276132 -16.96918,-0.613625 z m 32.25001,-6.053042 c -0.023,-12.969965 -4.67776,-26.412404 -10.60419,-30.624116 -1.4966,-1.063579 -4.56969,-2.442982 -6.8291,-3.06534 -2.2594,-0.622359 -4.74512,-1.996832 -5.52382,-3.054386 -1.3398,-1.819607 -1.45465,-1.822621 -2.13944,-0.05616 -0.93717,2.417486 -5.4019,2.417486 -6.80995,0 -0.9232,-1.585033 -1.09213,-1.408709 -1.11967,1.168672 -0.0178,1.669436 -0.93164,4.309436 -2.030671,5.866667 -3.354155,4.75256 -8.668435,15.972226 -8.668435,18.301054 0,2.590169 2.823921,3.999685 4.551697,2.271909 1.703091,-1.703091 2.914968,-1.50038 2.914968,0.487588 0,1.06438 2.979011,-0.970315 8.000001,-5.464073 4.4,-3.937981 8,-7.821131 8,-8.629224 0,-0.808093 0.468,-1.46926 1.04,-1.46926 1.05121,0 0.6734,3.461109 -1.19512,10.94867 -0.55112,2.208435 -3.14167,6.424458 -5.75679,9.368939 -7.41509,8.348999 -7.24664,8.482391 10.71191,8.482391 h 15.46667 l -0.008,-4.533333 z m -41.591944,-13.6 c 0,-0.586667 0.48,-1.066667 1.066667,-1.066667 0.586666,0 1.066666,0.48 1.066666,1.066667 0,0.586667 -0.48,1.066667 -1.066666,1.066667 -0.586667,0 -1.066667,-0.48 -1.066667,-1.066667 z m 7.466664,-13.113837 c 0,-0.857055 0.7661,-2.194087 1.70245,-2.971185 1.48636,-1.233573 1.65559,-1.091523 1.33333,1.119177 -0.40339,2.76723 -3.03578,4.373145 -3.03578,1.852008 z"
     id="path18814"
     inkscape:connector-curvature="0" />
  <path
     style="fill:#ffffff;stroke-width:0.27118644"
     d="m 27.612356,52.759037 c -5.22766,-0.465087 -5.26406,-1.36157 -0.29083,-7.162712 2.459481,-2.868919 4.477111,-5.736111 5.607121,-7.968103 0.938127,-1.852987 2.292543,-7.617985 2.508929,-10.679124 0.144988,-2.051104 0.10735,-2.389145 -0.28268,-2.538814 -0.611401,-0.234616 -1.183999,0.296095 -1.404977,1.3022 -0.433229,1.972477 -13.804127,14.314635 -15.507786,14.314635 -0.189105,0 -0.343828,-0.280678 -0.343828,-0.623729 0,-0.732895 -0.467837,-1.274576 -1.100819,-1.274576 -0.247484,0 -0.985789,0.425933 -1.640678,0.946519 -0.654888,0.520588 -1.45954,0.947707 -1.788116,0.949152 -1.516524,0.0067 -2.792421,-1.289331 -2.792421,-2.83645 0,-2.172511 4.661003,-12.161547 8.298426,-17.784428 1.334444,-2.062838 2.26962,-4.621013 2.296906,-6.283188 0.01048,-0.638603 0.11047,-1.394225 0.222193,-1.679159 0.18019,-0.459552 0.27051,-0.409043 0.799706,0.447214 1.547003,2.503103 5.781627,2.383251 7.01277,-0.198482 0.249427,-0.523055 0.528169,-0.951009 0.619427,-0.951009 0.09126,0 0.648316,0.498156 1.237908,1.107013 1.435729,1.482642 2.71746,2.194484 5.987757,3.325456 3.71698,1.285449 5.87416,2.416339 7.492183,3.927735 3.553798,3.319603 6.621207,9.962491 8.191536,17.73988 0.930037,4.606208 1.226202,7.547884 1.228795,12.205001 l 0.0022,4 -12,-0.03781 c -6.6,-0.0208 -13.059186,-0.132046 -14.353746,-0.247219 z M 14.537965,35.545594 c 0.420243,-0.641372 0.417969,-0.718954 -0.03578,-1.220339 -0.835805,-0.923554 -2.02761,-0.52097 -2.02761,0.684914 0,1.288144 1.342015,1.63638 2.063389,0.535425 z m 7.529202,-13.154016 c 1.122608,-1.334143 1.715949,-4.330561 0.857523,-4.330561 -0.705348,0 -2.266611,1.619129 -2.729171,2.830325 -0.806722,2.112372 0.485206,3.147929 1.871648,1.500236 z"
     id="path18816"
     inkscape:connector-curvature="0" />
</svg>
